# xmcd CD database file
#
# Track frame offsets:
#	150
#	16126
#	31045
#	43322
#	67497
#	80894
#	110269
#	124292
#	143504
#	155699
#	174155
#	187419
#	207244
#	231542
#	244250
#	257077
#	279864
#	296489
#	323160
#
# Disc length: 4680 seconds
#
# Revision: 0
# Processed by: cddbd v1.5.2PL0 Copyright (c) Steve Scherf et al.
# Submitted via: jetAudio 7
#
DISCID=20124613
DTITLE=Breno e Nando - Acústico Ao Vivo (2009)
DYEAR=1900
DGENRE=Setanejo
TTITLE0=Cupido
TTITLE1=Eu acabo voltando-Faz mais uma vez comigo
TTITLE2=Louco apaixonado
TTITLE3=De cara cheia-Sorriso mudo-Chega
TTITLE4=Jogo de amor
TTITLE5=Pout-Pourri-Pagodes
TTITLE6=Agora chega
TTITLE7=Desejo de amar
TTITLE8=Raio desse amor
TTITLE9=Esqueça que eu te amo
TTITLE10=Foi ilusão
TTITLE11=Hoje eu sei
TTITLE12=Medley-Pedaço de minha vida-Loira do carro branco
TTITLE13=Zeca kung-fú
TTITLE14=Mais uma noite sem você
TTITLE15=Pout-Pourri-Refrões
TTITLE16=Por ti
TTITLE17=Pout-Pourri de valsa
TTITLE18=Medley-Saudade de minha terra-60 dias apaixonado
EXTD=
EXTT0=
EXTT1=
EXTT2=
EXTT3=
EXTT4=
EXTT5=
EXTT6=
EXTT7=
EXTT8=
EXTT9=
EXTT10=
EXTT11=
EXTT12=
EXTT13=
EXTT14=
EXTT15=
EXTT16=
EXTT17=
EXTT18=
PLAYORDER=
